<?xml version="1.0" encoding="UTF-8"?>
<!-- Generated by Pixelmator Pro 3.7.1 -->
<svg width="2048" height="2048" viewBox="0 0 2048 2048" xmlns="http://www.w3.org/2000/svg">
    <g id="g1">
        <path id="path1" fill="none" stroke="#000000" stroke-width="65" visibility="hidden" d="M 493.5 1731.5 L 493.5 318 L 1023.5625 318 L 1023.5625 1731.5 L 1553.625 1731.5 L 1553.625 318"/>
    </g>
    <g id="g2">
        <path id="path2" fill="none" stroke="#ffffff" stroke-width="64.842102" stroke-linecap="round" stroke-linejoin="round" d="M 586.405762 1507.912842 L 401.594269 1954.08728"/>
        <path id="path3" fill="none" stroke="#ffffff" stroke-width="64.842102" stroke-linecap="round" stroke-linejoin="round" d="M 270.912811 1638.594238 L 717.087219 1823.405762"/>
        <path id="path4" fill="none" stroke="#ffffff" stroke-width="64.842102" stroke-linecap="round" stroke-linejoin="round" d="M 401.216156 1507 L 586.783875 1955"/>
        <path id="path5" fill="none" stroke="#ffffff" stroke-width="64.842102" stroke-linecap="round" stroke-linejoin="round" d="M 718 1638.216187 L 270 1823.783936"/>
    </g>
    <g id="-">
        <path id="path6" fill="none" stroke="#ffffff" stroke-width="64.842102" stroke-linecap="round" stroke-linejoin="round" d="M 1646.405762 95.412842 L 1461.594238 541.58728"/>
        <path id="path7" fill="none" stroke="#ffffff" stroke-width="64.842102" stroke-linecap="round" stroke-linejoin="round" d="M 1330.912842 226.094238 L 1777.087158 410.905762"/>
        <path id="path8" fill="none" stroke="#ffffff" stroke-width="64.842102" stroke-linecap="round" stroke-linejoin="round" d="M 1461.216187 94.5 L 1646.783813 542.5"/>
        <path id="path9" fill="none" stroke="#ffffff" stroke-width="64.842102" stroke-linecap="round" stroke-linejoin="round" d="M 1778 225.716187 L 1330 411.283813"/>
    </g>
    <g id="g3">
        <path id="path10" fill="none" stroke="#ffffff" stroke-width="65" stroke-linecap="square" d="M 494 1698 L 494 318"/>
        <path id="path11" fill="none" stroke="#ffffff" stroke-width="65" stroke-linecap="square" d="M 1024 318 L 494 318"/>
        <path id="path12" fill="none" stroke="#ffffff" stroke-width="65" stroke-linecap="square" d="M 1024 1731 L 1024 318"/>
        <path id="path13" fill="none" stroke="#ffffff" stroke-width="65" stroke-linecap="square" d="M 1554 1731 L 1024 1731"/>
        <path id="path14" fill="none" stroke="#ffffff" stroke-width="65" stroke-linecap="square" d="M 1554 350 L 1554 1731"/>
    </g>
</svg>
